<svg xmlns="http://www.w3.org/2000/svg" version="1.1" xmlns:xlink="http://www.w3.org/1999/xlink" xmlns:svgjs="http://svgjs.dev/svgjs" width="2000" height="2250" viewBox="0 0 2000 2250"><g transform="matrix(1,0,0,1,0.00006703124972773367,0)"><svg viewBox="0 0 320 360" data-background-color="#ffffff" preserveAspectRatio="xMidYMid meet" height="2250" width="2000" xmlns="http://www.w3.org/2000/svg" xmlns:xlink="http://www.w3.org/1999/xlink"><g id="tight-bounds" transform="matrix(1,0,0,1,0.00001072500003829191,0)"><svg viewBox="0 0 320 360" height="360" width="320"><g><svg></svg></g><g><svg viewBox="0 0 320 360" height="360" width="320"><g><path transform="translate(-21.67367,-1.67367) scale(3.63347,3.63347)" d="M87.84 28.16c-3.42-5.92-31.01-21.84-37.84-21.84-6.83 0-34.41 15.92-37.84 21.84-3.19 5.51-3.19 38.18 0 43.69 3.43 5.91 31.01 21.83 37.84 21.83 6.83 0 34.42-15.92 37.84-21.84 3.19-5.51 3.19-38.17 0-43.68zM91.14 26.25c-3.98-6.88-32.88-23.75-41.14-23.75-8.26 0-37.16 16.87-41.14 23.75-3.86 6.66-3.86 40.84 0 47.5 3.98 6.88 32.88 23.75 41.14 23.75 8.26 0 37.16-16.87 41.14-23.74 3.86-6.67 3.86-40.85 0-47.51zM88.78 72.39c-3.51 6.07-31.78 22.38-38.78 22.38-7 0-35.27-16.32-38.78-22.39-3.27-5.65-3.27-39.13 0-44.78 3.51-6.06 31.78-22.37 38.78-22.37 7 0 35.27 16.32 38.78 22.38 3.27 5.65 3.27 39.13 0 44.78z" fill="#096a2e" fill-rule="nonzero" stroke="none" stroke-width="1" stroke-linecap="butt" stroke-linejoin="miter" stroke-miterlimit="10" stroke-dasharray="" stroke-dashoffset="0" font-family="none" font-weight="none" font-size="none" text-anchor="none" style="mix-blend-mode: normal" data-fill-palette-color="tertiary"></path></g><g transform="matrix(1,0,0,1,72.71513054134691,90)"><svg viewBox="0 0 174.56973891730618 180" height="180" width="174.56973891730618"><g><svg viewBox="0 0 225.11999999999998 232.12270495057052" height="180" width="174.56973891730618"><g><rect width="225.11999999999998" height="6.6400378671347955" x="0" y="119.13908805015674" fill="#096a2e" opacity="1" stroke-width="0" stroke="transparent" fill-opacity="1" class="rect-qz-0" data-fill-palette-color="primary" rx="1%" id="qz-0" data-palette-color="#096a2e"></rect></g><g><rect width="225.11999999999998" height="6.6400378671347955" x="0" y="134.4702749580439" fill="#096a2e" opacity="1" stroke-width="0" stroke="transparent" fill-opacity="1" class="rect-qz-1" data-fill-palette-color="primary" rx="1%" id="qz-1" data-palette-color="#096a2e"></rect></g><g transform="matrix(1,0,0,1,0.5599999999999881,158.49261090668338)"><svg viewBox="0 0 224 73.63009404388714" height="73.63009404388714" width="224"><g id="textblocktransform"><svg viewBox="0 0 224 73.63009404388714" height="73.63009404388714" width="224" id="textblock"><g><svg viewBox="0 0 224 73.63009404388714" height="73.63009404388714" width="224"><g transform="matrix(1,0,0,1,0,0)"><svg width="224" viewBox="3.85 -36.25 111.65 36.7" height="73.63009404388714" data-palette-color="#ffffff"><path d="M43.8-0.4L43.8-0.4Q42.65 0.4 41.43 0.4 40.2 0.4 39.55-0.38 38.9-1.15 38.7-3L38.7-3 36.8-30.15 25.45-1.8Q24.95-0.45 23.58-0.48 22.2-0.5 21.75-1.8L21.75-1.8 10.7-30.2 8.85-3.15Q8.55 0.45 6.2 0.45L6.2 0.45Q5 0.45 3.85-0.6L3.85-0.6Q4.55-1.2 4.75-3.25L4.75-3.25 6.95-32.55Q6.95-32.75 6.95-32.95L6.95-32.95Q6.95-34.4 6.25-35.25L6.25-35.25Q7.8-36.25 9.4-36.25L9.4-36.25Q12.6-36.25 14.05-32.15L14.05-32.15 23.8-7.35 33.95-32.1Q35.4-36.25 38.85-36.25L38.85-36.25Q40.2-36.25 41.65-35.4L41.65-35.4Q40.9-34.65 40.9-33.1L40.9-33.1Q40.9-32.9 40.9-32.7L40.9-32.7 43.05-3.3Q43.15-1.1 43.8-0.4ZM80.2-32.8L80.2-32.8 80.2-3.1Q80.2-1.65 81.45-1.15L81.45-1.15Q80.45 0.45 78.85 0.45L78.85 0.45Q76.05 0.45 76.05-3.05L76.05-3.05 76.05-16.4 56.8-16.4 56.8-3.1Q56.8-1.7 58-1.15L58-1.15Q57 0.45 55.35 0.45L55.35 0.45Q52.6 0.45 52.6-3.05L52.6-3.05 52.6-32.75Q52.6-34.15 51.35-34.7L51.35-34.7Q52.25-36.25 53.95-36.25L53.95-36.25Q56.8-36.25 56.8-32.8L56.8-32.8 56.8-19.45 76.05-19.45 76.05-32.75Q76.05-34.15 74.8-34.7L74.8-34.7Q75.7-36.25 77.4-36.25L77.4-36.25Q80.2-36.25 80.2-32.8ZM94.55-32.55L94.55-18.05 101-18.05Q105.2-18.05 107.35-19.95 109.5-21.85 109.5-25.28 109.5-28.7 107.35-30.63 105.2-32.55 101-32.55L101-32.55 94.55-32.55ZM112.1 0.4L112.1 0.4Q110.7 0.4 109.75-0.33 108.8-1.05 107.35-3.1L107.35-3.1 99.15-14.75 94.6-14.75 94.6-3.1Q94.6-1.65 95.85-1.15L95.85-1.15Q94.8 0.45 93.15 0.45L93.15 0.45Q90.4 0.45 90.4-3.05L90.4-3.05 90.4-32.05Q90.4-33.5 89.15-34.05L89.15-34.05Q90.35-35.85 93.15-35.85L93.15-35.85 101.05-35.85Q106.9-35.85 110.42-33.05 113.95-30.25 113.95-25.65 113.95-21.05 111.32-18.38 108.7-15.7 104.15-15L104.15-15 112.4-4Q113.65-2.3 115.5-2.15L115.5-2.15Q114.35 0.4 112.1 0.4Z" opacity="1" transform="matrix(1,0,0,1,0,0)" fill="#ffffff" class="wordmark-text-0" data-fill-palette-color="quaternary" id="text-0"></path></svg></g></svg></g></svg></g></svg></g><g transform="matrix(1,0,0,1,61.68103970017413,0)"><svg viewBox="0 0 101.75792059965171 101.75678996865204" height="101.75678996865204" width="101.75792059965171"><g><svg xmlns="http://www.w3.org/2000/svg" xmlns:xlink="http://www.w3.org/1999/xlink" version="1.1" x="0" y="0" viewBox="4.967 5 90.001 90" enable-background="new 0 0 100 100" xml:space="preserve" height="101.75678996865204" width="101.75792059965171" class="icon-icon-0" data-fill-palette-color="quaternary" id="icon-0"><g fill="#ffffff" data-fill-palette-color="quaternary"><polygon points="81.588,69.219 76.042,77.733 49.901,5 30.566,58.797 24.486,43.546 4.967,95 17.555,95 45,95 64.794,95 82.249,95    94.968,95  " fill="#ffffff" data-fill-palette-color="quaternary"></polygon></g></svg></g></svg></g><g></g></svg></g></svg></g></svg></g><defs></defs></svg><rect width="320" height="360" fill="none" stroke="none" visibility="hidden"></rect></g></svg></g></svg>